<svg xmlns="http://www.w3.org/2000/svg" xmlns:xlink="http://www.w3.org/1999/xlink" fill="none" version="1.1" width="40" height="40" viewBox="0 0 40 40"><g style="mix-blend-mode:passthrough"><g><g style="mix-blend-mode:passthrough"><rect x="0" y="0" width="40" height="40" rx="0" fill="#000000" fill-opacity="0"/></g><g style="mix-blend-mode:passthrough"><path d="M19.898,10.609000465393066C18.75,9.160000465393066,16.98,8.237000465393066,15,8.237000465393066L8,8.237000465393066C6.20507,8.237000465393066,4.75,9.692070465393066,4.75,11.487000465393066L4.75,28.487000465393066L4.755,28.671000465393067C4.852578,30.391800465393068,6.27647,31.737100465393066,8,31.737000465393066L16.866,31.737000465393066L17.066000000000003,31.885000465393066C17.9254,32.48800046539307,18.9501,32.81110046539307,20,32.81000046539307L20.266,32.80400046539307C21.224,32.75520046539307,22.1488,32.43700046539307,22.934,31.886000465393067L23.133,31.738000465393068L32,31.737000465393066C33.7949,31.737000465393066,35.25,30.281900465393065,35.25,28.487000465393066L35.25,11.487000465393066C35.25,9.692070465393066,33.7949,8.237000465393066,32,8.237000465393066L25,8.237000465393066L24.771,8.241000465393066C22.934,8.306971865393066,21.2195,9.179587465393066,20.085,10.626000465393066L19.997999999999998,10.739000465393065L19.898,10.609000465393066ZM8,10.736990465393067L15,10.736990465393067L15,10.735990465393066C17.0083,10.735720465393067,18.6602,12.317610465393066,18.747,14.323990465393067L18.750999999999998,14.513990465393066L18.750999999999998,14.530990465393067L18.75,14.555990465393066L18.75,18.813000465393067L18.756,18.940000465393066C18.8213,19.604300465393067,19.397,20.100100465393066,20.0636,20.066100465393067C20.7302,20.032200465393068,21.2525,19.480500465393064,21.25,18.813000465393067L21.25,14.522990465393066C21.2404,13.522210465393066,21.6312,12.559110465393067,22.3355,11.848040465393066C23.0398,11.136970465393066,23.9992,10.736950465393067,25,10.736990465393067L32,10.736990465393067C32.4142,10.736990465393067,32.75,11.072780465393066,32.75,11.486990465393067L32.75,28.487000465393066C32.75,28.685900465393065,32.671,28.876700465393068,32.5303,29.017300465393067C32.389700000000005,29.158000465393066,32.198899999999995,29.237000465393066,32,29.237000465393066L22.672,29.238000465393068C22.3501,29.238100465393067,22.0406,29.362400465393065,21.808,29.585000465393065C21.324,30.049000465393068,20.683999999999997,30.311000465393068,20,30.311000465393068C19.3261,30.312300465393065,18.6779,30.052000465393068,18.192,29.585000465393065C17.959,29.363000465393068,17.65,29.238000465393068,17.328,29.238000465393068L8,29.237000465393066C7.586,29.237000465393066,7.25,28.901000465393068,7.25,28.487000465393066L7.25,11.486990465393067C7.25,11.072780465393066,7.585789999999999,10.736990465393067,8,10.736990465393067Z" fill-rule="evenodd" fill="#54B799" fill-opacity="1"/></g></g></g></svg>