<svg t="1657175351557" class="icon" viewBox="0 0 1024 1024" version="1.1" xmlns="http://www.w3.org/2000/svg" p-id="14061" width="64" height="64"><path d="M804.4544 292.3008h-135.552a22.5792 22.5792 0 1 1 0-45.184h135.552a22.3744 22.3744 0 0 1 22.6816 22.7328 22.9376 22.9376 0 0 1-22.6816 22.4512zM804.4544 410.8032h-177.1008a22.5792 22.5792 0 1 1 0-45.184h177.1008a22.5792 22.5792 0 1 1 0 45.184zM804.4544 525.4144h-123.6992a22.5792 22.5792 0 1 1 0-45.184h123.6992a22.5792 22.5792 0 0 1 0 45.184zM804.4544 643.7632h-78.5152a22.5792 22.5792 0 1 1 0-45.1584h78.5152a22.5792 22.5792 0 0 1 0 45.1584zM804.4544 757.76h-111.0272a22.5792 22.5792 0 0 1 0-45.184h111.0272a22.5792 22.5792 0 0 1 0 45.184zM179.2 741.9648c0-98.2272 54.6816-183.68 132.864-222.1312 31.232 17.1008 62.5152 29.9008 101.5808 29.9008 39.0656 0 70.2976-12.8 101.6576-34.1248 78.1568 38.4512 132.864 123.8528 132.864 222.1312C648.064 844.4928 179.2 844.4928 179.2 741.9648zM523.008 481.28l46.08-117.4528a159.0272 159.0272 0 1 1-318.0288 0 159.0272 159.0272 0 0 1 318.0288 0l-46.08 117.4528z" fill="#17B99A" p-id="14062"></path></svg>