<svg xmlns="http://www.w3.org/2000/svg" xmlns:xlink="http://www.w3.org/1999/xlink" fill="none" version="1.1" width="40" height="40" viewBox="0 0 40 40"><g style="mix-blend-mode:passthrough"><g><g style="mix-blend-mode:passthrough"><rect x="0" y="0" width="40" height="40" rx="0" fill="#000000" fill-opacity="0"/></g><g style="mix-blend-mode:passthrough"><path d="M30.6148,14.774C30.6148,20.8124,32.2084,25.9532,34.438,27.8888C35.684799999999996,28.97,36.4,30.5408,36.4,32.193200000000004C36.4,34.118,34.846000000000004,35.678,32.928399999999996,35.678L22.5148,35.678C22.5148,37.6016,22.1176,38,20.2,38C18.282400000000003,38,17.885199999999998,37.6016,17.885199999999998,35.678L7.4716000000000005,35.678C5.554,35.678,4,34.118,4,32.193200000000004C4,30.5396,4.7164,28.9688,5.962,27.8876C8.1928,25.952,9.7852,20.8112,9.7852,14.774C9.7852,10.2032,12.7132,6.3272,16.786,4.908799999999999C17.0608,3.26,18.4792,2,20.2,2C21.9208,2,23.3392,3.26,23.614,4.908799999999999C27.6868,6.3272,30.6148,10.2032,30.6148,14.774ZM7.0746400000000005,30.5228C6.59224,30.9428,6.70624,33.2012,8.800239999999999,33.2012L31.6002,33.2012C34.059,33.2012,33.8094,30.9428,33.3258,30.524C30.2262,27.8348,28.3002,21.7988,28.3002,14.774C28.3002,10.9316,24.0282,6.6452,20.2002,6.6452C16.3722,6.6452,12.10024,10.9316,12.10024,14.774C12.10024,21.7988,10.174240000000001,27.8336,7.0746400000000005,30.5228Z" fill-rule="evenodd" fill="#000000" fill-opacity="0.5"/></g></g></g></svg>