<svg t="1657175570914" class="icon" viewBox="0 0 1024 1024" version="1.1" xmlns="http://www.w3.org/2000/svg" p-id="908" width="64" height="64"><path d="M193.7664 406.0416l301.8752 183.8848c7.4752 4.352 16.7168 4.352 24.192 0l301.8752-183.8848a23.04 23.04 0 0 0 7.7312-31.9232 28.2112 28.2112 0 0 0-7.7312-7.7312l-301.8752-183.808a23.9616 23.9616 0 0 0-24.192 0L193.7664 366.336a23.04 23.04 0 0 0-7.8336 31.9488c1.8688 3.2256 4.5824 5.888 7.8336 7.7568z" fill="#27AD9A" p-id="909"></path><path d="M797.7472 492.3904l-290.1248 176.8448-290.0992-176.8448a22.8352 22.8352 0 0 0-30.9248 7.424 22.528 22.528 0 0 0 7.3984 30.8992l301.8752 183.8848c7.1168 4.3776 16.0768 4.3776 23.1936 0l301.8752-183.8848a22.3232 22.3232 0 0 0 6.7072-30.9248 21.8624 21.8624 0 0 0-29.9008-7.3984z" fill="#27AD9A" p-id="910"></path><path d="M797.7472 616.448l-290.1248 176.8192L217.5232 616.448a22.8352 22.8352 0 0 0-30.9248 7.3984 22.8352 22.8352 0 0 0 7.3984 30.9248L495.872 838.656c7.1168 4.352 16.0768 4.352 23.1936 0l301.8752-183.8848a22.4256 22.4256 0 0 0-23.1936-38.3232z" fill="#27AD9A" p-id="911"></path></svg>