<svg xmlns="http://www.w3.org/2000/svg" xmlns:xlink="http://www.w3.org/1999/xlink" fill="none" version="1.1" width="24" height="24" viewBox="0 0 24 24"><g style="mix-blend-mode:passthrough"><g><g style="mix-blend-mode:passthrough"><g transform="matrix(0,1,-1,0,24.000000476837158,-19.200000286102295)"><g style="mix-blend-mode:passthrough"><rect x="21.600000381469727" y="2.4000000953674316" width="19.200000762939453" height="19.200000762939453" rx="0" fill="#000000" fill-opacity="0"/></g><g style="mix-blend-mode:passthrough"><path d="M38.666666856384275,17.333333587646486C38.346666856384275,17.333333587646486,38.02666685638428,17.226663587646485,37.81336685638428,17.013333587646486L31.946666856384276,10.080003587646484C31.733336856384277,9.973333587646485,31.626666856384276,9.866663587646485,31.306666856384275,9.866663587646485C31.199996856384278,9.866663587646485,30.879996856384277,9.973333587646485,30.773336856384276,10.080003587646484L24.586666856384277,16.906663587646484C24.15999685638428,17.333333587646486,23.519999856384278,17.333333587646486,23.093333856384277,17.013333587646486C22.666666956384276,16.586663587646484,22.666666956384276,15.946663587646484,22.98666685638428,15.520003587646485L29.173336856384278,8.693333587646485C29.706666856384278,8.053333587646485,30.559996856384277,7.733333587646484,31.413336856384277,7.733333587646484C32.266666856384276,7.733333587646484,33.01336685638428,8.160000587646485,33.65336685638428,8.800003587646485L39.51996685638427,15.626663587646483C39.946666856384276,16.053333587646485,39.83996685638428,16.693333587646485,39.41336685638428,17.120003587646487C39.19996685638428,17.226663587646485,38.87996685638428,17.333333587646486,38.666666856384275,17.333333587646486Z" fill="#000000" fill-opacity="0.20000000298023224"/></g></g></g></g></g></svg>