<svg t="1657175965670" class="icon" viewBox="0 0 1024 1024" version="1.1" xmlns="http://www.w3.org/2000/svg" p-id="3604" width="64" height="64"><path d="M759.5 834.34h-495c-41.27 0-74.84-33.57-74.84-74.84V423.1c0-41.27 33.57-74.84 74.84-74.84h108.6c13.72 0 24.84 11.12 24.84 24.84s-11.12 24.84-24.84 24.84H264.5c-13.87 0-25.16 11.29-25.16 25.16v336.4c0 13.87 11.29 25.16 25.16 25.16h495c13.87 0 25.16-11.29 25.16-25.16V423.1c0-13.87-11.29-25.16-25.16-25.16H650.58c-13.72 0-24.84-11.12-24.84-24.84s11.12-24.84 24.84-24.84H759.5c41.27 0 74.84 33.57 74.84 74.84v336.4c0 41.27-33.57 74.84-74.84 74.84z" fill="#cdcdcd" p-id="3605"></path><path d="M712.99 526.94H311.01c-13.72 0-24.84-11.12-24.84-24.84s11.12-24.84 24.84-24.84h401.98c13.72 0 24.84 11.12 24.84 24.84s-11.12 24.84-24.84 24.84z" fill="#cdcdcd" p-id="3606"></path><path d="M623.24 527.12H400.76c-24.73 0-44.84-20.12-44.84-44.84V233.79c0-24.73 20.12-44.84 44.84-44.84h222.49c24.73 0 44.84 20.12 44.84 44.84v248.49c0 24.73-20.12 44.84-44.85 44.84zM405.6 477.44h212.8V238.63H405.6v238.81z" fill="#cdcdcd" p-id="3607"></path><path d="M498.82 429.35l-63.39-51.68c-10.63-8.67-12.23-24.32-3.56-34.95 8.67-10.63 24.32-12.23 34.95-3.56l28.6 23.32 59.88-59.88c9.7-9.7 25.43-9.7 35.13 0 9.7 9.7 9.7 25.43 0 35.13l-91.61 91.62z" fill="#cdcdcd" p-id="3608"></path></svg>