<svg xmlns="http://www.w3.org/2000/svg" xmlns:xlink="http://www.w3.org/1999/xlink" fill="none" version="1.1" width="32" height="32" viewBox="0 0 32 32"><g style="mix-blend-mode:passthrough"><g><g style="mix-blend-mode:passthrough"><g><g style="mix-blend-mode:passthrough"><rect x="0" y="0" width="32" height="32" rx="0" fill="#000000" fill-opacity="0"/></g><g style="mix-blend-mode:passthrough"><path d="M3.200000047683716,14.153100095367432C3.200000047683716,20.701200095367433,8.404940047683716,25.90620009536743,14.953100047683716,25.90620009536743C21.501200047683717,25.90620009536743,26.706200047683716,20.701200095367433,26.706200047683716,14.153100095367432C26.706200047683716,7.604940095367431,21.501200047683717,2.4000000953674316,14.953100047683716,2.4000000953674316C8.404940047683716,2.4000000953674316,3.200000047683716,7.604940095367431,3.200000047683716,14.153100095367432ZM14.953100047683716,22.54820009536743C19.654300047683716,22.54820009536743,23.348200047683715,18.85430009536743,23.348200047683715,14.153100095367432C23.348200047683715,9.451860095367431,19.654300047683716,5.758030095367431,14.953100047683716,5.758030095367431C10.251860047683715,5.758030095367431,6.558030047683715,9.451860095367431,6.558030047683715,14.153100095367432C6.558030047683715,18.85430009536743,10.251860047683715,22.54820009536743,14.953100047683716,22.54820009536743ZM24.859300047683718,22.54810009536743L29.560500047683714,27.24940009536743L27.209900047683714,29.60000009536743L22.508700047683718,24.89880009536743L24.859300047683718,22.54810009536743Z" fill-rule="evenodd" fill="#000000" fill-opacity="0.30000001192092896"/></g></g></g></g></g></svg>