<svg t="1657173223938" class="icon" viewBox="0 0 1043 1024" version="1.1" xmlns="http://www.w3.org/2000/svg" p-id="9405" width="64" height="64"><path d="M421.958 637.273c0-61.925 28.32-119.785 79.811-163.146 50.272-42.277 116.805-65.584 187.537-65.584 22.9 0 45.936 2.575 68.159 7.453-1.49-149.054-145.667-269.652-323.312-269.652-178.458 0-323.311 121.817-323.311 272.09 0 81.71 42.954 154.881 110.706 204.747l-48.51 101.492c-1.084 2.168-0.271 4.742 1.897 5.826 1.22 0.678 2.846 0.678 4.2-0.135l117.347-65.855-0.136-0.135c42.277 16.667 87.264 25.339 132.658 25.88-4.607-17.344-7.046-35.095-7.046-52.981z m128.05-334.016c21.681 0 39.161 17.48 39.161 39.16s-17.48 39.16-39.16 39.16-39.16-17.48-39.16-39.16 17.48-39.16 39.16-39.16z m-232.794 78.32c-21.68 0-39.16-17.48-39.16-39.16s17.48-39.16 39.16-39.296c21.68 0 39.16 17.48 39.296 39.16 0 21.817-17.616 39.297-39.296 39.297z" p-id="9406" fill="#ffffff"></path><path d="M849.2 791.205c50.95-37.534 83.064-92.684 83.064-153.932 0-93.09-74.256-171.818-175.748-196.345-21.951-5.284-44.445-7.859-67.074-7.859-134.149 0-242.822 91.465-242.822 204.204 0 17.886 2.71 35.502 8.13 52.44 27.507 87.4 122.224 151.9 234.692 151.9 35.366 0.135 70.462-6.505 103.389-19.378l78.05 43.768c3.252 1.761 7.588 0.677 9.35-2.71a6.753 6.753 0 0 0 0.27-6.233l-31.3-65.855zM631.717 584.02c-1.761 13.28-12.195 23.578-25.339 25.34-16.125 2.167-30.895-9.35-33.063-25.34-2.168-16.125 9.35-30.895 25.34-33.063 16.124-2.168 30.894 9.35 33.062 25.34 0.271 2.71 0.271 5.284 0 7.723z m145.531 25.61c-16.26 0-29.404-13.28-29.404-29.404s13.28-29.404 29.404-29.404c16.26 0 29.404 13.28 29.404 29.404s-13.279 29.404-29.404 29.404z" p-id="9407" fill="#ffffff"></path></svg>